<svg xmlns="http://www.w3.org/2000/svg" viewBox="0 0 64 64" role="img" aria-label="I-Kiribati Help">
  <rect width="64" height="64" rx="14" fill="#0b5f8a"/>
  <circle cx="32" cy="36" r="13" fill="#f2a900"/>
  <g stroke="#f2a900" stroke-width="3" stroke-linecap="round">
    <path d="M32 14v5M17 20l3.5 3.5M47 20l-3.5 3.5M10 34h5M49 34h5"/>
  </g>
  <rect x="0" y="38" width="64" height="26" fill="#0b5f8a"/>
  <path d="M6 42c4.3 0 4.3 3 8.7 3s4.3-3 8.6-3 4.4 3 8.7 3 4.3-3 8.7-3 4.3 3 8.6 3 4.4-3 8.7-3" fill="none" stroke="#fff" stroke-width="3" stroke-linecap="round"/>
  <path d="M6 50c4.3 0 4.3 3 8.7 3s4.3-3 8.6-3 4.4 3 8.7 3 4.3-3 8.7-3 4.3 3 8.6 3 4.4-3 8.7-3" fill="none" stroke="#fff" stroke-width="3" stroke-linecap="round" opacity=".75"/>
</svg>
